<mxfile host="app.diagrams.net" agent="Mozilla/5.0 (Windows NT 10.0; Win64; x64) AppleWebKit/537.36 (KHTML, like Gecko) Chrome/138.0.0.0 Safari/537.36" version="28.0.6">
  <diagram id="C5RBs43oDa-KdzZeNtuy" name="Page-1">
    <mxGraphModel dx="6657" dy="4631" grid="1" gridSize="10" guides="1" tooltips="1" connect="1" arrows="1" fold="1" page="1" pageScale="1" pageWidth="827" pageHeight="1169" math="0" shadow="0">
      <root>
        <mxCell id="WIyWlLk6GJQsqaUBKTNV-0" />
        <mxCell id="WIyWlLk6GJQsqaUBKTNV-1" parent="WIyWlLk6GJQsqaUBKTNV-0" />
        <mxCell id="qsxormpt_K1bgfT8KIqX-1" value="&lt;div&gt;Change calculation system:&lt;/div&gt;&lt;div&gt;&lt;span style=&quot;background-color: transparent; color: light-dark(rgb(0, 0, 0), rgb(255, 255, 255));&quot;&gt;&lt;br&gt;&lt;/span&gt;&lt;/div&gt;&lt;div&gt;&lt;span style=&quot;background-color: transparent; color: light-dark(rgb(0, 0, 0), rgb(255, 255, 255));&quot;&gt;1. accept the coins and bills from user that &lt;b&gt;input&lt;/b&gt;&amp;nbsp;into the machine:&lt;/span&gt;&lt;/div&gt;&lt;div&gt;&lt;span style=&quot;white-space: pre;&quot;&gt;&#x9;&lt;/span&gt;- set variable to 0&lt;br&gt;&lt;/div&gt;&lt;div&gt;&lt;span style=&quot;white-space: pre;&quot;&gt;&#x9;&lt;/span&gt;coin = {&lt;br&gt;&lt;/div&gt;&lt;div&gt;&lt;span style=&quot;white-space: pre;&quot;&gt;&#x9;&lt;/span&gt;&lt;span style=&quot;white-space: pre;&quot;&gt;&#x9;&lt;/span&gt;&lt;span style=&quot;background-color: transparent; color: light-dark(rgb(0, 0, 0), rgb(255, 255, 255));&quot;&gt;one_Baht&lt;/span&gt;&lt;br&gt;&lt;/div&gt;&lt;div&gt;&lt;span style=&quot;white-space: pre;&quot;&gt;&#x9;&lt;/span&gt;&lt;span style=&quot;white-space: pre;&quot;&gt;&#x9;&lt;/span&gt;two_Baht&lt;br&gt;&lt;/div&gt;&lt;div&gt;&lt;span style=&quot;white-space: pre;&quot;&gt;&#x9;&lt;/span&gt;&lt;span style=&quot;white-space: pre;&quot;&gt;&#x9;&lt;/span&gt;five_Baht&lt;br&gt;&lt;/div&gt;&lt;div&gt;&lt;span style=&quot;white-space: pre;&quot;&gt;&#x9;&lt;/span&gt;&lt;span style=&quot;white-space: pre;&quot;&gt;&#x9;&lt;/span&gt;ten_Baht&lt;/div&gt;&lt;div&gt;&lt;span style=&quot;white-space: pre;&quot;&gt;&#x9;&lt;/span&gt;}&lt;br&gt;&lt;/div&gt;&lt;div&gt;&lt;br&gt;&lt;/div&gt;&lt;div&gt;&lt;span style=&quot;white-space: pre;&quot;&gt;&#x9;&lt;/span&gt;bills = {&lt;span style=&quot;background-color: transparent; color: light-dark(rgb(0, 0, 0), rgb(255, 255, 255)); white-space: pre;&quot;&gt;&#x9;&lt;/span&gt;&lt;span style=&quot;background-color: transparent; color: light-dark(rgb(0, 0, 0), rgb(255, 255, 255)); white-space: pre;&quot;&gt;&#x9;&lt;/span&gt;&lt;/div&gt;&lt;div&gt;&lt;span style=&quot;background-color: transparent; color: light-dark(rgb(0, 0, 0), rgb(255, 255, 255));&quot;&gt;&lt;span style=&quot;white-space: pre;&quot;&gt;&#x9;&lt;/span&gt;&lt;span style=&quot;white-space: pre;&quot;&gt;&#x9;&lt;/span&gt;twenty_Baht&lt;/span&gt;&lt;/div&gt;&lt;div&gt;&lt;span style=&quot;white-space: pre;&quot;&gt;&#x9;&lt;/span&gt;&lt;span style=&quot;white-space: pre;&quot;&gt;&#x9;&lt;/span&gt;fifty_Baht&lt;br&gt;&lt;/div&gt;&lt;div&gt;&lt;span style=&quot;white-space: pre;&quot;&gt;&#x9;&lt;/span&gt;&lt;span style=&quot;white-space: pre;&quot;&gt;&#x9;&lt;/span&gt;hundreds_Baht&lt;br&gt;&lt;/div&gt;&lt;div&gt;&lt;span style=&quot;white-space: pre;&quot;&gt;&#x9;&lt;/span&gt;&lt;span style=&quot;white-space: pre;&quot;&gt;&#x9;&lt;/span&gt;fiveHundred_Baht&lt;br&gt;&lt;/div&gt;&lt;div&gt;&lt;span style=&quot;white-space: pre;&quot;&gt;&#x9;&lt;/span&gt;&lt;span style=&quot;white-space: pre;&quot;&gt;&#x9;&lt;/span&gt;thousand_Baht&lt;/div&gt;&lt;div&gt;&lt;span style=&quot;background-color: transparent; color: light-dark(rgb(0, 0, 0), rgb(255, 255, 255));&quot;&gt;&lt;span style=&quot;white-space: pre;&quot;&gt;&#x9;&lt;/span&gt;}&lt;/span&gt;&lt;/div&gt;&lt;div&gt;&lt;span style=&quot;white-space: pre;&quot;&gt;&#x9;&lt;/span&gt;- count the bills/coins that user put into the machine&lt;br&gt;&lt;/div&gt;&lt;div&gt;&lt;span style=&quot;white-space: pre;&quot;&gt;&#x9;&lt;/span&gt;-&amp;nbsp;&lt;span style=&quot;background-color: transparent; color: light-dark(rgb(0, 0, 0), rgb(255, 255, 255));&quot;&gt;check what kind of coins or bills it is:&lt;/span&gt;&lt;br&gt;&lt;/div&gt;&lt;div&gt;&lt;span style=&quot;white-space: pre;&quot;&gt;&#x9;&lt;/span&gt;&lt;span style=&quot;white-space: pre;&quot;&gt;&#x9;&lt;/span&gt;- if 1 baht coin then, one_Baht + ac_user, etc.&lt;/div&gt;&lt;div&gt;&lt;br&gt;&lt;/div&gt;&lt;div&gt;&lt;span style=&quot;white-space: pre;&quot;&gt;&#x9;&lt;/span&gt;&lt;b&gt;&lt;u&gt;Condition to consider:&lt;/u&gt;&lt;/b&gt;&lt;br&gt;&lt;/div&gt;&lt;div&gt;&lt;u style=&quot;font-weight: bold;&quot;&gt;&lt;span style=&quot;white-space: pre;&quot;&gt;&#x9;&lt;/span&gt;- &lt;/u&gt;Timeout =&amp;nbsp; did the user use longer than 3 minutes for the payment?&lt;br&gt;&lt;/div&gt;&lt;div&gt;&lt;span style=&quot;white-space: pre;&quot;&gt;&#x9;&lt;/span&gt;&lt;span style=&quot;white-space: pre;&quot;&gt;&#x9;&lt;/span&gt;Yes - return to the menu selection&lt;br&gt;&lt;/div&gt;&lt;div&gt;&lt;span style=&quot;white-space: pre;&quot;&gt;&#x9;&lt;/span&gt;&lt;span style=&quot;white-space: pre;&quot;&gt;&#x9;&lt;/span&gt;No - continue the process&lt;br&gt;&lt;/div&gt;&lt;div&gt;2. take that number of bills &amp;amp; coins to calculate:&lt;/div&gt;&lt;div&gt;&lt;span style=&quot;white-space: pre;&quot;&gt;&#x9;&lt;/span&gt;-&amp;nbsp;&lt;u style=&quot;font-weight: bold;&quot;&gt;amount of coins user put into the machine (&lt;/u&gt;ac_User&lt;u style=&quot;font-weight: bold;&quot;&gt;)&lt;/u&gt;:&lt;br&gt;&lt;/div&gt;&lt;div&gt;&lt;span style=&quot;white-space: pre;&quot;&gt;&#x9;&lt;/span&gt;&lt;span style=&quot;white-space: pre;&quot;&gt;&#x9;&lt;/span&gt;-&amp;nbsp;&lt;span style=&quot;background-color: transparent; color: light-dark(rgb(0, 0, 0), rgb(255, 255, 255));&quot;&gt;one_Baht =&amp;nbsp;&lt;/span&gt;&lt;span style=&quot;background-color: transparent; color: light-dark(rgb(0, 0, 0), rgb(255, 255, 255));&quot;&gt;1 * ac_User&lt;/span&gt;&lt;/div&gt;&lt;div&gt;&lt;span style=&quot;white-space: pre;&quot;&gt;&#x9;&lt;/span&gt;&lt;span style=&quot;white-space: pre;&quot;&gt;&#x9;&lt;/span&gt;-&amp;nbsp;&lt;span style=&quot;background-color: transparent; color: light-dark(rgb(0, 0, 0), rgb(255, 255, 255));&quot;&gt;two_Baht =&amp;nbsp;&lt;/span&gt;&lt;span style=&quot;background-color: transparent; color: light-dark(rgb(0, 0, 0), rgb(255, 255, 255));&quot;&gt;2 * ac_User&lt;/span&gt;&lt;/div&gt;&lt;div&gt;&lt;span style=&quot;white-space: pre;&quot;&gt;&#x9;&lt;/span&gt;&lt;span style=&quot;white-space: pre;&quot;&gt;&#x9;&lt;/span&gt;-&amp;nbsp;&lt;span style=&quot;background-color: transparent; color: light-dark(rgb(0, 0, 0), rgb(255, 255, 255));&quot;&gt;five_Baht =&amp;nbsp;&lt;/span&gt;&lt;span style=&quot;background-color: transparent; color: light-dark(rgb(0, 0, 0), rgb(255, 255, 255));&quot;&gt;5 * ac_User&lt;/span&gt;&lt;/div&gt;&lt;div&gt;&lt;span style=&quot;white-space: pre;&quot;&gt;&#x9;&lt;/span&gt;&lt;span style=&quot;white-space: pre;&quot;&gt;&#x9;&lt;/span&gt;-&amp;nbsp;&lt;span style=&quot;background-color: transparent; color: light-dark(rgb(0, 0, 0), rgb(255, 255, 255));&quot;&gt;ten_Baht =&amp;nbsp;&lt;/span&gt;&lt;span style=&quot;background-color: transparent; color: light-dark(rgb(0, 0, 0), rgb(255, 255, 255));&quot;&gt;10 * ac_User&lt;/span&gt;&lt;/div&gt;&lt;div&gt;&lt;span style=&quot;white-space: pre;&quot;&gt;&#x9;&lt;/span&gt;- amount of bills user put into the machine(ab_User:&lt;br&gt;&lt;/div&gt;&lt;div&gt;&lt;span style=&quot;white-space: pre;&quot;&gt;&#x9;&lt;/span&gt;&lt;span style=&quot;white-space: pre;&quot;&gt;&#x9;&lt;/span&gt;-&amp;nbsp;&lt;span style=&quot;background-color: transparent; color: light-dark(rgb(0, 0, 0), rgb(255, 255, 255));&quot;&gt;twenty_Baht =&amp;nbsp;&lt;/span&gt;&lt;span style=&quot;background-color: transparent; color: light-dark(rgb(0, 0, 0), rgb(255, 255, 255));&quot;&gt;20 * ab_User&lt;/span&gt;&lt;/div&gt;&lt;div&gt;&lt;span style=&quot;white-space: pre;&quot;&gt;&#x9;&lt;/span&gt;&lt;span style=&quot;white-space: pre;&quot;&gt;&#x9;&lt;/span&gt;- fifty_Baht = 50 * ab_User&lt;br&gt;&lt;/div&gt;&lt;div&gt;&lt;span style=&quot;white-space: pre;&quot;&gt;&#x9;&lt;/span&gt;&lt;span style=&quot;white-space: pre;&quot;&gt;&#x9;&lt;/span&gt;- hundreds_Baht = 100 * ab_User&lt;br&gt;&lt;/div&gt;&lt;div&gt;&lt;span style=&quot;white-space: pre;&quot;&gt;&#x9;&lt;/span&gt;&lt;span style=&quot;white-space: pre;&quot;&gt;&#x9;&lt;/span&gt;-&amp;nbsp;&lt;span style=&quot;background-color: transparent; color: light-dark(rgb(0, 0, 0), rgb(255, 255, 255));&quot;&gt;fiveHundred_Baht = 500 * ab_User&lt;/span&gt;&lt;br&gt;&lt;/div&gt;&lt;div&gt;&lt;span style=&quot;white-space: pre;&quot;&gt;&#x9;&lt;/span&gt;&lt;span style=&quot;white-space: pre;&quot;&gt;&#x9;&lt;/span&gt;- thousand_Baht = 1000 * ab_User&lt;/div&gt;&lt;div&gt;3. displayed the amount that user put in:&lt;/div&gt;&lt;div&gt;&lt;span style=&quot;white-space: pre;&quot;&gt;&#x9;&lt;/span&gt;&amp;nbsp;- check if the amount is correct or not[]:&lt;br&gt;&lt;/div&gt;&lt;div&gt;&lt;span style=&quot;white-space: pre;&quot;&gt;&#x9;&lt;/span&gt;&lt;span style=&quot;white-space: pre;&quot;&gt;&#x9;&lt;/span&gt;-(No)&amp;nbsp;&lt;span style=&quot;background-color: transparent; color: light-dark(rgb(0, 0, 0), rgb(255, 255, 255));&quot;&gt;if total_input &amp;lt; item_price:&lt;/span&gt;&lt;br&gt;&lt;/div&gt;&lt;div&gt;&lt;span style=&quot;background-color: transparent; color: light-dark(rgb(0, 0, 0), rgb(255, 255, 255));&quot;&gt;&lt;span style=&quot;white-space: pre;&quot;&gt;&#x9;&lt;/span&gt;&lt;span style=&quot;white-space: pre;&quot;&gt;&#x9;&lt;/span&gt;&lt;span style=&quot;white-space: pre;&quot;&gt;&#x9;&lt;/span&gt;print(&quot;Not enough money.&quot;)&lt;br&gt;&lt;/span&gt;&lt;/div&gt;&lt;div&gt;&lt;span style=&quot;background-color: transparent; color: light-dark(rgb(0, 0, 0), rgb(255, 255, 255));&quot;&gt;&lt;span style=&quot;white-space: pre;&quot;&gt;&#x9;&lt;/span&gt;&lt;span style=&quot;white-space: pre;&quot;&gt;&#x9;&lt;/span&gt;&lt;span style=&quot;white-space: pre;&quot;&gt;&#x9;&lt;/span&gt;return to money input&lt;br&gt;&lt;/span&gt;&lt;/div&gt;&lt;div&gt;&lt;span style=&quot;white-space: pre;&quot;&gt;&#x9;&lt;/span&gt;&lt;span style=&quot;white-space: pre;&quot;&gt;&#x9;&lt;/span&gt;- yes; go to calculate the change&lt;br&gt;&lt;/div&gt;&lt;div&gt;&lt;span style=&quot;background-color: transparent; color: light-dark(rgb(0, 0, 0), rgb(255, 255, 255));&quot;&gt;4. calculate the change:&lt;/span&gt;&lt;/div&gt;&lt;div&gt;- take the (number)_Baht&lt;div&gt;- calculate each bills and coin:&lt;/div&gt;&lt;div&gt;&lt;span style=&quot;white-space: pre;&quot;&gt;&#x9;&lt;/span&gt;- B1000 -&amp;gt; thousand_Baht div 1000, thousand_Baht&amp;nbsp;mod 1000&amp;nbsp;&lt;/div&gt;&lt;div&gt;&lt;span style=&quot;white-space: pre;&quot;&gt;&#x9;&lt;/span&gt;&lt;span style=&quot;white-space: pre;&quot;&gt;&#x9;&lt;/span&gt;-&amp;nbsp;&lt;span style=&quot;background-color: transparent; color: light-dark(rgb(0, 0, 0), rgb(255, 255, 255));&quot;&gt;if the remainder = 0, end&lt;/span&gt;&lt;br&gt;&lt;/div&gt;&lt;div&gt;&lt;span style=&quot;white-space: pre;&quot;&gt;&#x9;&lt;/span&gt;- B500 -&amp;gt; fiveHundred_Baht div 500, fiveHundred_Baht mod 500&lt;br&gt;&lt;/div&gt;&lt;div&gt;&lt;span style=&quot;white-space: pre;&quot;&gt;&#x9;&lt;/span&gt;&lt;span style=&quot;white-space: pre;&quot;&gt;&#x9;&lt;/span&gt;-&amp;nbsp;&lt;span style=&quot;color: light-dark(rgb(0, 0, 0), rgb(255, 255, 255)); background-color: transparent;&quot;&gt;if the remainder = 0, end&lt;/span&gt;&lt;/div&gt;&lt;div&gt;&lt;span style=&quot;white-space: pre;&quot;&gt;&#x9;&lt;/span&gt;- B100 -&amp;gt; hundreds_Baht div 100, hundreds_Baht mod 100&lt;br&gt;&lt;/div&gt;&lt;div&gt;&lt;span style=&quot;white-space: pre;&quot;&gt;&#x9;&lt;/span&gt;&lt;span style=&quot;white-space: pre;&quot;&gt;&#x9;&lt;/span&gt;-&amp;nbsp;&lt;span style=&quot;color: light-dark(rgb(0, 0, 0), rgb(255, 255, 255)); background-color: transparent;&quot;&gt;if the remainder = 0, end&lt;/span&gt;&lt;/div&gt;&lt;div&gt;&lt;span style=&quot;white-space: pre;&quot;&gt;&#x9;&lt;/span&gt;- B50 -&amp;gt; fifty_Baht&amp;nbsp;div 50, fifty_Baht&amp;nbsp;mod 50&lt;br&gt;&lt;/div&gt;&lt;div&gt;&lt;span style=&quot;white-space: pre;&quot;&gt;&#x9;&lt;/span&gt;&lt;span style=&quot;white-space: pre;&quot;&gt;&#x9;&lt;/span&gt;-&amp;nbsp;&lt;span style=&quot;color: light-dark(rgb(0, 0, 0), rgb(255, 255, 255)); background-color: transparent;&quot;&gt;if the remainder = 0, end&lt;/span&gt;&lt;/div&gt;&lt;div&gt;&lt;span style=&quot;white-space: pre;&quot;&gt;&#x9;&lt;/span&gt;- B20 -&amp;gt; twenty_Baht&amp;nbsp;div 20, twenty_Baht&amp;nbsp;mod 20&lt;br&gt;&lt;/div&gt;&lt;div&gt;&lt;span style=&quot;white-space: pre;&quot;&gt;&#x9;&lt;/span&gt;&lt;span style=&quot;white-space: pre;&quot;&gt;&#x9;&lt;/span&gt;-&amp;nbsp;&lt;span style=&quot;color: light-dark(rgb(0, 0, 0), rgb(255, 255, 255)); background-color: transparent;&quot;&gt;if the remainder = 0, end&lt;/span&gt;&lt;/div&gt;&lt;div&gt;&lt;span style=&quot;white-space: pre;&quot;&gt;&#x9;&lt;/span&gt;- C10 -&amp;gt; ten_Baht&amp;nbsp;div 10, ten_Baht&amp;nbsp;mod 10&lt;br&gt;&lt;/div&gt;&lt;div&gt;&lt;span style=&quot;white-space: pre;&quot;&gt;&#x9;&lt;/span&gt;&lt;span style=&quot;white-space: pre;&quot;&gt;&#x9;&lt;/span&gt;-&amp;nbsp;&lt;span style=&quot;color: light-dark(rgb(0, 0, 0), rgb(255, 255, 255)); background-color: transparent;&quot;&gt;if the remainder = 0, end&lt;/span&gt;&lt;/div&gt;&lt;div&gt;&lt;span style=&quot;white-space: pre;&quot;&gt;&#x9;&lt;/span&gt;- C5 -&amp;gt; five_Baht&amp;nbsp;div 5&lt;br&gt;&lt;/div&gt;&lt;div&gt;&lt;span style=&quot;white-space: pre;&quot;&gt;&#x9;&lt;/span&gt;- C1 -&amp;gt; one_Baht&amp;nbsp;% 1&lt;/div&gt;&lt;div&gt;5. check the change in the machine:&lt;/div&gt;&lt;/div&gt;&lt;div&gt;&lt;br&gt;&lt;/div&gt;&lt;div&gt;machine change stock (examples):&lt;/div&gt;&lt;div&gt;&lt;span style=&quot;white-space: pre;&quot;&gt;&#x9;&lt;/span&gt;machine_1000 = 50&lt;br&gt;&lt;/div&gt;&lt;div&gt;&lt;span style=&quot;white-space: pre;&quot;&gt;&#x9;&lt;/span&gt;machine_500 = 20&lt;br&gt;&lt;/div&gt;&lt;div&gt;&lt;span style=&quot;white-space: pre;&quot;&gt;&#x9;&lt;/span&gt;machine_100 = 50&lt;br&gt;&lt;/div&gt;&lt;div&gt;&lt;span style=&quot;white-space: pre;&quot;&gt;&#x9;&lt;/span&gt;machine_50 = 100&lt;br&gt;&lt;/div&gt;&lt;div&gt;&lt;span style=&quot;white-space: pre;&quot;&gt;&#x9;&lt;/span&gt;machine_20 = 150&lt;br&gt;&lt;/div&gt;&lt;div&gt;&lt;span style=&quot;white-space: pre;&quot;&gt;&#x9;&lt;/span&gt;machine_10 = 150&lt;br&gt;&lt;/div&gt;&lt;div&gt;&lt;span style=&quot;white-space: pre;&quot;&gt;&#x9;&lt;/span&gt;machine_5 = 150&lt;br&gt;&lt;/div&gt;&lt;div&gt;&lt;span style=&quot;white-space: pre;&quot;&gt;&#x9;&lt;/span&gt;machine_2 = 100&lt;br&gt;&lt;/div&gt;&lt;div&gt;&lt;span style=&quot;white-space: pre;&quot;&gt;&#x9;&lt;/span&gt;machine_1 = 150&lt;br&gt;&lt;/div&gt;&lt;div&gt;(Yes), still have change for user then can give to user&lt;/div&gt;&lt;div&gt;(No), show error and apology message and return the money back to user&lt;/div&gt;&lt;div&gt;6. display amount for coins and bills of the change, total change, item price&lt;/div&gt;" style="whiteSpace=wrap;html=1;align=left;fillColor=none;fontSize=16;" parent="WIyWlLk6GJQsqaUBKTNV-1" vertex="1">
          <mxGeometry x="-2720" y="-1275" width="570" height="1500" as="geometry" />
        </mxCell>
        <mxCell id="pzGv0phb2LqkbiFoEdxt-111" value="" style="group" parent="WIyWlLk6GJQsqaUBKTNV-1" vertex="1" connectable="0">
          <mxGeometry x="-1050" y="-3300" width="1090" height="1330" as="geometry" />
        </mxCell>
        <mxCell id="pzGv0phb2LqkbiFoEdxt-108" value="" style="group" parent="pzGv0phb2LqkbiFoEdxt-111" vertex="1" connectable="0">
          <mxGeometry y="120" width="1090" height="1210" as="geometry" />
        </mxCell>
        <mxCell id="pzGv0phb2LqkbiFoEdxt-24" value="" style="whiteSpace=wrap;html=1;fillColor=#e3c800;fontColor=#000000;strokeColor=#B09500;movable=1;resizable=1;rotatable=1;deletable=1;editable=1;locked=0;connectable=1;" parent="pzGv0phb2LqkbiFoEdxt-108" vertex="1">
          <mxGeometry width="1090" height="1210" as="geometry" />
        </mxCell>
        <mxCell id="pzGv0phb2LqkbiFoEdxt-7" style="edgeStyle=orthogonalEdgeStyle;rounded=0;orthogonalLoop=1;jettySize=auto;html=1;entryX=0.5;entryY=0;entryDx=0;entryDy=0;" parent="pzGv0phb2LqkbiFoEdxt-108" source="pzGv0phb2LqkbiFoEdxt-5" target="pzGv0phb2LqkbiFoEdxt-6" edge="1">
          <mxGeometry relative="1" as="geometry" />
        </mxCell>
        <mxCell id="pzGv0phb2LqkbiFoEdxt-5" value="&lt;font data-font-src=&quot;https://fonts.googleapis.com/css?family=Sarabun&quot; face=&quot;Sarabun&quot;&gt;Start&lt;/font&gt;" style="ellipse;whiteSpace=wrap;html=1;" parent="pzGv0phb2LqkbiFoEdxt-108" vertex="1">
          <mxGeometry x="459.79999999999995" y="50" width="130" height="30" as="geometry" />
        </mxCell>
        <mxCell id="pzGv0phb2LqkbiFoEdxt-16" style="edgeStyle=orthogonalEdgeStyle;rounded=0;orthogonalLoop=1;jettySize=auto;html=1;entryX=0.5;entryY=0;entryDx=0;entryDy=0;" parent="pzGv0phb2LqkbiFoEdxt-108" source="pzGv0phb2LqkbiFoEdxt-6" target="pzGv0phb2LqkbiFoEdxt-8" edge="1">
          <mxGeometry relative="1" as="geometry" />
        </mxCell>
        <mxCell id="pzGv0phb2LqkbiFoEdxt-6" value="drinks_stock = {&lt;br&gt;coke: 10,&lt;div&gt;fanta: 10,&lt;/div&gt;&lt;div&gt;americano: 10,&lt;/div&gt;&lt;div&gt;latte: 10&amp;nbsp;&lt;span style=&quot;background-color: transparent; color: light-dark(rgb(0, 0, 0), rgb(255, 255, 255));&quot;&gt;}&lt;/span&gt;&lt;/div&gt;&lt;div&gt;&lt;br&gt;&lt;/div&gt;&lt;div&gt;snacks_stock = {&lt;br&gt;sunflowerSeed: 10,&lt;/div&gt;&lt;div&gt;bean: 10,&lt;/div&gt;&lt;div&gt;sourPork: 10&amp;nbsp;&lt;span style=&quot;background-color: transparent; color: light-dark(rgb(0, 0, 0), rgb(255, 255, 255));&quot;&gt;}&lt;/span&gt;&lt;/div&gt;" style="whiteSpace=wrap;html=1;align=left;" parent="pzGv0phb2LqkbiFoEdxt-108" vertex="1">
          <mxGeometry x="438.54999999999995" y="110" width="172.5" height="160" as="geometry" />
        </mxCell>
        <mxCell id="pzGv0phb2LqkbiFoEdxt-13" style="edgeStyle=orthogonalEdgeStyle;rounded=0;orthogonalLoop=1;jettySize=auto;html=1;entryX=0.5;entryY=0;entryDx=0;entryDy=0;" parent="pzGv0phb2LqkbiFoEdxt-108" source="pzGv0phb2LqkbiFoEdxt-8" target="pzGv0phb2LqkbiFoEdxt-12" edge="1">
          <mxGeometry relative="1" as="geometry">
            <Array as="points">
              <mxPoint x="657.8" y="330" />
            </Array>
          </mxGeometry>
        </mxCell>
        <mxCell id="pzGv0phb2LqkbiFoEdxt-44" style="edgeStyle=orthogonalEdgeStyle;rounded=0;orthogonalLoop=1;jettySize=auto;html=1;exitX=0;exitY=0.5;exitDx=0;exitDy=0;entryX=0.5;entryY=0;entryDx=0;entryDy=0;" parent="pzGv0phb2LqkbiFoEdxt-108" source="pzGv0phb2LqkbiFoEdxt-8" target="pzGv0phb2LqkbiFoEdxt-9" edge="1">
          <mxGeometry relative="1" as="geometry" />
        </mxCell>
        <mxCell id="pzGv0phb2LqkbiFoEdxt-8" value="check the drinks_stock?" style="rhombus;whiteSpace=wrap;html=1;" parent="pzGv0phb2LqkbiFoEdxt-108" vertex="1">
          <mxGeometry x="449.79999999999995" y="300" width="150" height="60" as="geometry" />
        </mxCell>
        <mxCell id="pzGv0phb2LqkbiFoEdxt-21" style="edgeStyle=orthogonalEdgeStyle;rounded=0;orthogonalLoop=1;jettySize=auto;html=1;entryX=0.5;entryY=0;entryDx=0;entryDy=0;" parent="pzGv0phb2LqkbiFoEdxt-108" source="pzGv0phb2LqkbiFoEdxt-9" target="pzGv0phb2LqkbiFoEdxt-53" edge="1">
          <mxGeometry relative="1" as="geometry">
            <mxPoint x="398.54999999999995" y="430" as="targetPoint" />
            <Array as="points" />
          </mxGeometry>
        </mxCell>
        <mxCell id="pzGv0phb2LqkbiFoEdxt-23" style="edgeStyle=orthogonalEdgeStyle;rounded=0;orthogonalLoop=1;jettySize=auto;html=1;entryX=0.5;entryY=0;entryDx=0;entryDy=0;" parent="pzGv0phb2LqkbiFoEdxt-108" source="pzGv0phb2LqkbiFoEdxt-9" target="pzGv0phb2LqkbiFoEdxt-22" edge="1">
          <mxGeometry relative="1" as="geometry">
            <Array as="points">
              <mxPoint x="264.79999999999995" y="375" />
              <mxPoint x="264.79999999999995" y="400" />
            </Array>
          </mxGeometry>
        </mxCell>
        <mxCell id="pzGv0phb2LqkbiFoEdxt-9" value="Is coke = 0?" style="rhombus;whiteSpace=wrap;html=1;" parent="pzGv0phb2LqkbiFoEdxt-108" vertex="1">
          <mxGeometry x="358.54999999999995" y="350" width="80" height="50" as="geometry" />
        </mxCell>
        <mxCell id="pzGv0phb2LqkbiFoEdxt-11" value="Yes" style="text;html=1;align=center;verticalAlign=middle;resizable=0;points=[];autosize=1;strokeColor=none;fillColor=none;" parent="pzGv0phb2LqkbiFoEdxt-108" vertex="1">
          <mxGeometry x="404.79999999999995" y="300" width="40" height="30" as="geometry" />
        </mxCell>
        <mxCell id="pzGv0phb2LqkbiFoEdxt-47" style="edgeStyle=orthogonalEdgeStyle;rounded=0;orthogonalLoop=1;jettySize=auto;html=1;entryX=0.5;entryY=0;entryDx=0;entryDy=0;" parent="pzGv0phb2LqkbiFoEdxt-108" source="pzGv0phb2LqkbiFoEdxt-12" target="pzGv0phb2LqkbiFoEdxt-72" edge="1">
          <mxGeometry relative="1" as="geometry">
            <mxPoint x="657.3" y="420" as="targetPoint" />
          </mxGeometry>
        </mxCell>
        <mxCell id="pzGv0phb2LqkbiFoEdxt-81" style="edgeStyle=orthogonalEdgeStyle;rounded=0;orthogonalLoop=1;jettySize=auto;html=1;entryX=0.5;entryY=0;entryDx=0;entryDy=0;" parent="pzGv0phb2LqkbiFoEdxt-108" source="pzGv0phb2LqkbiFoEdxt-12" target="pzGv0phb2LqkbiFoEdxt-80" edge="1">
          <mxGeometry relative="1" as="geometry" />
        </mxCell>
        <mxCell id="pzGv0phb2LqkbiFoEdxt-12" value="Is sunflowerSeed = 0?" style="rhombus;whiteSpace=wrap;html=1;" parent="pzGv0phb2LqkbiFoEdxt-108" vertex="1">
          <mxGeometry x="574.8" y="350" width="165" height="50" as="geometry" />
        </mxCell>
        <mxCell id="pzGv0phb2LqkbiFoEdxt-14" value="No" style="text;html=1;align=center;verticalAlign=middle;resizable=0;points=[];autosize=1;strokeColor=none;fillColor=none;" parent="pzGv0phb2LqkbiFoEdxt-108" vertex="1">
          <mxGeometry x="614.8" y="300" width="40" height="30" as="geometry" />
        </mxCell>
        <mxCell id="pzGv0phb2LqkbiFoEdxt-56" style="edgeStyle=orthogonalEdgeStyle;rounded=0;orthogonalLoop=1;jettySize=auto;html=1;entryX=0.5;entryY=0;entryDx=0;entryDy=0;" parent="pzGv0phb2LqkbiFoEdxt-108" source="pzGv0phb2LqkbiFoEdxt-17" target="pzGv0phb2LqkbiFoEdxt-27" edge="1">
          <mxGeometry relative="1" as="geometry">
            <Array as="points">
              <mxPoint x="258.79999999999995" y="510" />
            </Array>
          </mxGeometry>
        </mxCell>
        <mxCell id="pzGv0phb2LqkbiFoEdxt-58" style="edgeStyle=orthogonalEdgeStyle;rounded=0;orthogonalLoop=1;jettySize=auto;html=1;entryX=0.5;entryY=0;entryDx=0;entryDy=0;" parent="pzGv0phb2LqkbiFoEdxt-108" source="pzGv0phb2LqkbiFoEdxt-17" target="pzGv0phb2LqkbiFoEdxt-57" edge="1">
          <mxGeometry relative="1" as="geometry" />
        </mxCell>
        <mxCell id="pzGv0phb2LqkbiFoEdxt-17" value="Is fanta = 0?" style="rhombus;whiteSpace=wrap;html=1;" parent="pzGv0phb2LqkbiFoEdxt-108" vertex="1">
          <mxGeometry x="358.54999999999995" y="480" width="80" height="60" as="geometry" />
        </mxCell>
        <mxCell id="pzGv0phb2LqkbiFoEdxt-60" style="edgeStyle=orthogonalEdgeStyle;rounded=0;orthogonalLoop=1;jettySize=auto;html=1;entryX=0.5;entryY=0;entryDx=0;entryDy=0;" parent="pzGv0phb2LqkbiFoEdxt-108" source="pzGv0phb2LqkbiFoEdxt-18" target="pzGv0phb2LqkbiFoEdxt-30" edge="1">
          <mxGeometry relative="1" as="geometry">
            <Array as="points">
              <mxPoint x="258.79999999999995" y="650" />
            </Array>
          </mxGeometry>
        </mxCell>
        <mxCell id="pzGv0phb2LqkbiFoEdxt-67" style="edgeStyle=orthogonalEdgeStyle;rounded=0;orthogonalLoop=1;jettySize=auto;html=1;entryX=0.5;entryY=0;entryDx=0;entryDy=0;" parent="pzGv0phb2LqkbiFoEdxt-108" source="pzGv0phb2LqkbiFoEdxt-18" target="pzGv0phb2LqkbiFoEdxt-62" edge="1">
          <mxGeometry relative="1" as="geometry" />
        </mxCell>
        <mxCell id="pzGv0phb2LqkbiFoEdxt-18" value="Is americano = 0?" style="rhombus;whiteSpace=wrap;html=1;" parent="pzGv0phb2LqkbiFoEdxt-108" vertex="1">
          <mxGeometry x="338.79999999999995" y="620" width="120" height="60" as="geometry" />
        </mxCell>
        <mxCell id="pzGv0phb2LqkbiFoEdxt-33" style="edgeStyle=orthogonalEdgeStyle;rounded=0;orthogonalLoop=1;jettySize=auto;html=1;entryX=0.5;entryY=0;entryDx=0;entryDy=0;" parent="pzGv0phb2LqkbiFoEdxt-108" source="pzGv0phb2LqkbiFoEdxt-19" target="pzGv0phb2LqkbiFoEdxt-32" edge="1">
          <mxGeometry relative="1" as="geometry">
            <Array as="points">
              <mxPoint x="274.79999999999995" y="830" />
            </Array>
          </mxGeometry>
        </mxCell>
        <mxCell id="pzGv0phb2LqkbiFoEdxt-70" style="edgeStyle=orthogonalEdgeStyle;rounded=0;orthogonalLoop=1;jettySize=auto;html=1;entryX=0.5;entryY=0;entryDx=0;entryDy=0;" parent="pzGv0phb2LqkbiFoEdxt-108" source="pzGv0phb2LqkbiFoEdxt-19" target="pzGv0phb2LqkbiFoEdxt-69" edge="1">
          <mxGeometry relative="1" as="geometry" />
        </mxCell>
        <mxCell id="pzGv0phb2LqkbiFoEdxt-19" value="Is latte = 0?" style="rhombus;whiteSpace=wrap;html=1;" parent="pzGv0phb2LqkbiFoEdxt-108" vertex="1">
          <mxGeometry x="358.54999999999995" y="800" width="80" height="60" as="geometry" />
        </mxCell>
        <mxCell id="pzGv0phb2LqkbiFoEdxt-99" style="edgeStyle=orthogonalEdgeStyle;rounded=0;orthogonalLoop=1;jettySize=auto;html=1;entryX=0;entryY=0.5;entryDx=0;entryDy=0;" parent="pzGv0phb2LqkbiFoEdxt-108" source="pzGv0phb2LqkbiFoEdxt-22" target="pzGv0phb2LqkbiFoEdxt-92" edge="1">
          <mxGeometry relative="1" as="geometry">
            <Array as="points">
              <mxPoint x="94.80000000000018" y="418" />
              <mxPoint x="94.80000000000018" y="1045" />
            </Array>
          </mxGeometry>
        </mxCell>
        <mxCell id="pzGv0phb2LqkbiFoEdxt-22" value="&quot;Coke is out of stock&quot;" style="shape=parallelogram;perimeter=parallelogramPerimeter;whiteSpace=wrap;html=1;fixedSize=1;fontFamily=Sarabun;fontSource=https%3A%2F%2Ffonts.googleapis.com%2Fcss%3Ffamily%3DSarabun;" parent="pzGv0phb2LqkbiFoEdxt-108" vertex="1">
          <mxGeometry x="194.79999999999995" y="408" width="140" height="20" as="geometry" />
        </mxCell>
        <mxCell id="pzGv0phb2LqkbiFoEdxt-25" value="No" style="text;html=1;align=center;verticalAlign=middle;whiteSpace=wrap;rounded=0;" parent="pzGv0phb2LqkbiFoEdxt-108" vertex="1">
          <mxGeometry x="388.54999999999995" y="395" width="50" height="25" as="geometry" />
        </mxCell>
        <mxCell id="pzGv0phb2LqkbiFoEdxt-26" value="Yes" style="text;html=1;align=center;verticalAlign=middle;resizable=0;points=[];autosize=1;strokeColor=none;fillColor=none;" parent="pzGv0phb2LqkbiFoEdxt-108" vertex="1">
          <mxGeometry x="304.79999999999995" y="350" width="40" height="30" as="geometry" />
        </mxCell>
        <mxCell id="pzGv0phb2LqkbiFoEdxt-98" style="edgeStyle=orthogonalEdgeStyle;rounded=0;orthogonalLoop=1;jettySize=auto;html=1;entryX=0;entryY=0.5;entryDx=0;entryDy=0;" parent="pzGv0phb2LqkbiFoEdxt-108" source="pzGv0phb2LqkbiFoEdxt-27" target="pzGv0phb2LqkbiFoEdxt-92" edge="1">
          <mxGeometry relative="1" as="geometry">
            <Array as="points">
              <mxPoint x="114.80000000000018" y="550" />
              <mxPoint x="114.80000000000018" y="1045" />
            </Array>
          </mxGeometry>
        </mxCell>
        <mxCell id="pzGv0phb2LqkbiFoEdxt-27" value="&quot;Fanta is out of stock&quot;" style="shape=parallelogram;perimeter=parallelogramPerimeter;whiteSpace=wrap;html=1;fixedSize=1;fontFamily=Sarabun;fontSource=https%3A%2F%2Ffonts.googleapis.com%2Fcss%3Ffamily%3DSarabun;" parent="pzGv0phb2LqkbiFoEdxt-108" vertex="1">
          <mxGeometry x="188.79999999999995" y="540" width="140" height="20" as="geometry" />
        </mxCell>
        <mxCell id="pzGv0phb2LqkbiFoEdxt-29" value="Yes" style="text;html=1;align=center;verticalAlign=middle;resizable=0;points=[];autosize=1;strokeColor=none;fillColor=none;" parent="pzGv0phb2LqkbiFoEdxt-108" vertex="1">
          <mxGeometry x="304.79999999999995" y="486" width="40" height="30" as="geometry" />
        </mxCell>
        <mxCell id="pzGv0phb2LqkbiFoEdxt-97" style="edgeStyle=orthogonalEdgeStyle;rounded=0;orthogonalLoop=1;jettySize=auto;html=1;entryX=0;entryY=0.5;entryDx=0;entryDy=0;" parent="pzGv0phb2LqkbiFoEdxt-108" source="pzGv0phb2LqkbiFoEdxt-30" target="pzGv0phb2LqkbiFoEdxt-92" edge="1">
          <mxGeometry relative="1" as="geometry">
            <Array as="points">
              <mxPoint x="134.79999999999995" y="690" />
              <mxPoint x="134.79999999999995" y="1045" />
            </Array>
          </mxGeometry>
        </mxCell>
        <mxCell id="pzGv0phb2LqkbiFoEdxt-30" value="&quot;Americano is out of stock&quot;" style="shape=parallelogram;perimeter=parallelogramPerimeter;whiteSpace=wrap;html=1;fixedSize=1;fontFamily=Sarabun;fontSource=https%3A%2F%2Ffonts.googleapis.com%2Fcss%3Ffamily%3DSarabun;" parent="pzGv0phb2LqkbiFoEdxt-108" vertex="1">
          <mxGeometry x="168.79999999999995" y="680" width="180" height="20" as="geometry" />
        </mxCell>
        <mxCell id="pzGv0phb2LqkbiFoEdxt-96" style="edgeStyle=orthogonalEdgeStyle;rounded=0;orthogonalLoop=1;jettySize=auto;html=1;entryX=0;entryY=0.5;entryDx=0;entryDy=0;" parent="pzGv0phb2LqkbiFoEdxt-108" source="pzGv0phb2LqkbiFoEdxt-32" target="pzGv0phb2LqkbiFoEdxt-92" edge="1">
          <mxGeometry relative="1" as="geometry" />
        </mxCell>
        <mxCell id="pzGv0phb2LqkbiFoEdxt-32" value="&quot;Latte is out of stock&quot;" style="shape=parallelogram;perimeter=parallelogramPerimeter;whiteSpace=wrap;html=1;fixedSize=1;fontFamily=Sarabun;fontSource=https%3A%2F%2Ffonts.googleapis.com%2Fcss%3Ffamily%3DSarabun;" parent="pzGv0phb2LqkbiFoEdxt-108" vertex="1">
          <mxGeometry x="204.79999999999995" y="875" width="140" height="20" as="geometry" />
        </mxCell>
        <mxCell id="pzGv0phb2LqkbiFoEdxt-42" value="No" style="text;html=1;align=center;verticalAlign=middle;whiteSpace=wrap;rounded=0;" parent="pzGv0phb2LqkbiFoEdxt-108" vertex="1">
          <mxGeometry x="394.79999999999995" y="590" width="50" height="25" as="geometry" />
        </mxCell>
        <mxCell id="pzGv0phb2LqkbiFoEdxt-43" value="No" style="text;html=1;align=center;verticalAlign=middle;whiteSpace=wrap;rounded=0;" parent="pzGv0phb2LqkbiFoEdxt-108" vertex="1">
          <mxGeometry x="399.79999999999995" y="690" width="50" height="25" as="geometry" />
        </mxCell>
        <mxCell id="pzGv0phb2LqkbiFoEdxt-78" style="edgeStyle=orthogonalEdgeStyle;rounded=0;orthogonalLoop=1;jettySize=auto;html=1;entryX=0.5;entryY=0;entryDx=0;entryDy=0;" parent="pzGv0phb2LqkbiFoEdxt-108" source="pzGv0phb2LqkbiFoEdxt-45" target="pzGv0phb2LqkbiFoEdxt-74" edge="1">
          <mxGeometry relative="1" as="geometry" />
        </mxCell>
        <mxCell id="pzGv0phb2LqkbiFoEdxt-83" style="edgeStyle=orthogonalEdgeStyle;rounded=0;orthogonalLoop=1;jettySize=auto;html=1;entryX=0;entryY=0.5;entryDx=0;entryDy=0;" parent="pzGv0phb2LqkbiFoEdxt-108" edge="1">
          <mxGeometry relative="1" as="geometry">
            <mxPoint x="697.55" y="515.46" as="sourcePoint" />
            <mxPoint x="749.8" y="515.46" as="targetPoint" />
          </mxGeometry>
        </mxCell>
        <mxCell id="pzGv0phb2LqkbiFoEdxt-45" value="Is bean = 0?" style="rhombus;whiteSpace=wrap;html=1;" parent="pzGv0phb2LqkbiFoEdxt-108" vertex="1">
          <mxGeometry x="617.55" y="486" width="80" height="60" as="geometry" />
        </mxCell>
        <mxCell id="pzGv0phb2LqkbiFoEdxt-76" style="edgeStyle=orthogonalEdgeStyle;rounded=0;orthogonalLoop=1;jettySize=auto;html=1;entryX=0.5;entryY=0;entryDx=0;entryDy=0;" parent="pzGv0phb2LqkbiFoEdxt-108" source="pzGv0phb2LqkbiFoEdxt-46" target="pzGv0phb2LqkbiFoEdxt-75" edge="1">
          <mxGeometry relative="1" as="geometry" />
        </mxCell>
        <mxCell id="pzGv0phb2LqkbiFoEdxt-85" style="edgeStyle=orthogonalEdgeStyle;rounded=0;orthogonalLoop=1;jettySize=auto;html=1;entryX=0;entryY=0.5;entryDx=0;entryDy=0;" parent="pzGv0phb2LqkbiFoEdxt-108" source="pzGv0phb2LqkbiFoEdxt-46" target="pzGv0phb2LqkbiFoEdxt-84" edge="1">
          <mxGeometry relative="1" as="geometry" />
        </mxCell>
        <mxCell id="pzGv0phb2LqkbiFoEdxt-46" value="Is sourPork= 0?" style="rhombus;whiteSpace=wrap;html=1;" parent="pzGv0phb2LqkbiFoEdxt-108" vertex="1">
          <mxGeometry x="598.8" y="620" width="117.5" height="60" as="geometry" />
        </mxCell>
        <mxCell id="pzGv0phb2LqkbiFoEdxt-49" value="No" style="text;html=1;align=center;verticalAlign=middle;resizable=0;points=[];autosize=1;strokeColor=none;fillColor=none;" parent="pzGv0phb2LqkbiFoEdxt-108" vertex="1">
          <mxGeometry x="659.8" y="400" width="40" height="30" as="geometry" />
        </mxCell>
        <mxCell id="pzGv0phb2LqkbiFoEdxt-50" value="No" style="text;html=1;align=center;verticalAlign=middle;resizable=0;points=[];autosize=1;strokeColor=none;fillColor=none;" parent="pzGv0phb2LqkbiFoEdxt-108" vertex="1">
          <mxGeometry x="654.8" y="540" width="40" height="30" as="geometry" />
        </mxCell>
        <mxCell id="pzGv0phb2LqkbiFoEdxt-51" value="Yes" style="text;html=1;align=center;verticalAlign=middle;resizable=0;points=[];autosize=1;strokeColor=none;fillColor=none;" parent="pzGv0phb2LqkbiFoEdxt-108" vertex="1">
          <mxGeometry x="278.79999999999995" y="630" width="40" height="30" as="geometry" />
        </mxCell>
        <mxCell id="pzGv0phb2LqkbiFoEdxt-52" value="Yes" style="text;html=1;align=center;verticalAlign=middle;resizable=0;points=[];autosize=1;strokeColor=none;fillColor=none;" parent="pzGv0phb2LqkbiFoEdxt-108" vertex="1">
          <mxGeometry x="313.54999999999995" y="810" width="40" height="30" as="geometry" />
        </mxCell>
        <mxCell id="pzGv0phb2LqkbiFoEdxt-54" style="edgeStyle=orthogonalEdgeStyle;rounded=0;orthogonalLoop=1;jettySize=auto;html=1;entryX=0.5;entryY=0;entryDx=0;entryDy=0;" parent="pzGv0phb2LqkbiFoEdxt-108" source="pzGv0phb2LqkbiFoEdxt-53" target="pzGv0phb2LqkbiFoEdxt-17" edge="1">
          <mxGeometry relative="1" as="geometry" />
        </mxCell>
        <mxCell id="pzGv0phb2LqkbiFoEdxt-53" value="Show amount of Coke" style="shape=parallelogram;perimeter=parallelogramPerimeter;whiteSpace=wrap;html=1;fixedSize=1;fontFamily=Sarabun;fontSource=https%3A%2F%2Ffonts.googleapis.com%2Fcss%3Ffamily%3DSarabun;" parent="pzGv0phb2LqkbiFoEdxt-108" vertex="1">
          <mxGeometry x="328.54999999999995" y="440" width="140" height="20" as="geometry" />
        </mxCell>
        <mxCell id="pzGv0phb2LqkbiFoEdxt-61" style="edgeStyle=orthogonalEdgeStyle;rounded=0;orthogonalLoop=1;jettySize=auto;html=1;entryX=0.5;entryY=0;entryDx=0;entryDy=0;" parent="pzGv0phb2LqkbiFoEdxt-108" source="pzGv0phb2LqkbiFoEdxt-57" target="pzGv0phb2LqkbiFoEdxt-18" edge="1">
          <mxGeometry relative="1" as="geometry" />
        </mxCell>
        <mxCell id="pzGv0phb2LqkbiFoEdxt-57" value="Show amount of fanta" style="shape=parallelogram;perimeter=parallelogramPerimeter;whiteSpace=wrap;html=1;fixedSize=1;fontFamily=Sarabun;fontSource=https%3A%2F%2Ffonts.googleapis.com%2Fcss%3Ffamily%3DSarabun;" parent="pzGv0phb2LqkbiFoEdxt-108" vertex="1">
          <mxGeometry x="328.54999999999995" y="570" width="140" height="20" as="geometry" />
        </mxCell>
        <mxCell id="pzGv0phb2LqkbiFoEdxt-59" value="No" style="text;html=1;align=center;verticalAlign=middle;whiteSpace=wrap;rounded=0;" parent="pzGv0phb2LqkbiFoEdxt-108" vertex="1">
          <mxGeometry x="394.79999999999995" y="537.5" width="50" height="25" as="geometry" />
        </mxCell>
        <mxCell id="pzGv0phb2LqkbiFoEdxt-66" style="edgeStyle=orthogonalEdgeStyle;rounded=0;orthogonalLoop=1;jettySize=auto;html=1;entryX=0.5;entryY=0;entryDx=0;entryDy=0;" parent="pzGv0phb2LqkbiFoEdxt-108" source="pzGv0phb2LqkbiFoEdxt-62" target="pzGv0phb2LqkbiFoEdxt-19" edge="1">
          <mxGeometry relative="1" as="geometry" />
        </mxCell>
        <mxCell id="pzGv0phb2LqkbiFoEdxt-62" value="Show amount of Americano" style="shape=parallelogram;perimeter=parallelogramPerimeter;whiteSpace=wrap;html=1;fixedSize=1;fontFamily=Sarabun;fontSource=https%3A%2F%2Ffonts.googleapis.com%2Fcss%3Ffamily%3DSarabun;" parent="pzGv0phb2LqkbiFoEdxt-108" vertex="1">
          <mxGeometry x="328.54999999999995" y="730" width="140" height="30" as="geometry" />
        </mxCell>
        <mxCell id="pzGv0phb2LqkbiFoEdxt-68" value="No" style="text;html=1;align=center;verticalAlign=middle;whiteSpace=wrap;rounded=0;" parent="pzGv0phb2LqkbiFoEdxt-108" vertex="1">
          <mxGeometry x="388.54999999999995" y="770" width="50" height="25" as="geometry" />
        </mxCell>
        <mxCell id="pzGv0phb2LqkbiFoEdxt-95" style="edgeStyle=orthogonalEdgeStyle;rounded=0;orthogonalLoop=1;jettySize=auto;html=1;entryX=0;entryY=0.5;entryDx=0;entryDy=0;" parent="pzGv0phb2LqkbiFoEdxt-108" source="pzGv0phb2LqkbiFoEdxt-69" target="pzGv0phb2LqkbiFoEdxt-90" edge="1">
          <mxGeometry relative="1" as="geometry" />
        </mxCell>
        <mxCell id="pzGv0phb2LqkbiFoEdxt-69" value="Show amount of latte" style="shape=parallelogram;perimeter=parallelogramPerimeter;whiteSpace=wrap;html=1;fixedSize=1;fontFamily=Sarabun;fontSource=https%3A%2F%2Ffonts.googleapis.com%2Fcss%3Ffamily%3DSarabun;" parent="pzGv0phb2LqkbiFoEdxt-108" vertex="1">
          <mxGeometry x="328.54999999999995" y="910" width="140" height="30" as="geometry" />
        </mxCell>
        <mxCell id="pzGv0phb2LqkbiFoEdxt-71" value="No" style="text;html=1;align=center;verticalAlign=middle;whiteSpace=wrap;rounded=0;" parent="pzGv0phb2LqkbiFoEdxt-108" vertex="1">
          <mxGeometry x="394.79999999999995" y="872.5" width="50" height="25" as="geometry" />
        </mxCell>
        <mxCell id="pzGv0phb2LqkbiFoEdxt-73" style="edgeStyle=orthogonalEdgeStyle;rounded=0;orthogonalLoop=1;jettySize=auto;html=1;entryX=0.5;entryY=0;entryDx=0;entryDy=0;" parent="pzGv0phb2LqkbiFoEdxt-108" source="pzGv0phb2LqkbiFoEdxt-72" target="pzGv0phb2LqkbiFoEdxt-45" edge="1">
          <mxGeometry relative="1" as="geometry" />
        </mxCell>
        <mxCell id="pzGv0phb2LqkbiFoEdxt-72" value="Show amount of sunflowerSeed" style="shape=parallelogram;perimeter=parallelogramPerimeter;whiteSpace=wrap;html=1;fixedSize=1;fontFamily=Sarabun;fontSource=https%3A%2F%2Ffonts.googleapis.com%2Fcss%3Ffamily%3DSarabun;" parent="pzGv0phb2LqkbiFoEdxt-108" vertex="1">
          <mxGeometry x="587.3" y="430" width="140" height="30" as="geometry" />
        </mxCell>
        <mxCell id="pzGv0phb2LqkbiFoEdxt-77" style="edgeStyle=orthogonalEdgeStyle;rounded=0;orthogonalLoop=1;jettySize=auto;html=1;entryX=0.5;entryY=0;entryDx=0;entryDy=0;" parent="pzGv0phb2LqkbiFoEdxt-108" source="pzGv0phb2LqkbiFoEdxt-74" target="pzGv0phb2LqkbiFoEdxt-46" edge="1">
          <mxGeometry relative="1" as="geometry" />
        </mxCell>
        <mxCell id="pzGv0phb2LqkbiFoEdxt-74" value="Show amount of bean" style="shape=parallelogram;perimeter=parallelogramPerimeter;whiteSpace=wrap;html=1;fixedSize=1;fontFamily=Sarabun;fontSource=https%3A%2F%2Ffonts.googleapis.com%2Fcss%3Ffamily%3DSarabun;" parent="pzGv0phb2LqkbiFoEdxt-108" vertex="1">
          <mxGeometry x="587.3" y="565" width="140" height="30" as="geometry" />
        </mxCell>
        <mxCell id="pzGv0phb2LqkbiFoEdxt-94" style="edgeStyle=orthogonalEdgeStyle;rounded=0;orthogonalLoop=1;jettySize=auto;html=1;entryX=0.5;entryY=0;entryDx=0;entryDy=0;" parent="pzGv0phb2LqkbiFoEdxt-108" source="pzGv0phb2LqkbiFoEdxt-75" target="pzGv0phb2LqkbiFoEdxt-93" edge="1">
          <mxGeometry relative="1" as="geometry" />
        </mxCell>
        <mxCell id="pzGv0phb2LqkbiFoEdxt-75" value="Show amount of sourPork" style="shape=parallelogram;perimeter=parallelogramPerimeter;whiteSpace=wrap;html=1;fixedSize=1;fontFamily=Sarabun;fontSource=https%3A%2F%2Ffonts.googleapis.com%2Fcss%3Ffamily%3DSarabun;" parent="pzGv0phb2LqkbiFoEdxt-108" vertex="1">
          <mxGeometry x="571.1800000000001" y="710" width="172.75" height="30" as="geometry" />
        </mxCell>
        <mxCell id="pzGv0phb2LqkbiFoEdxt-79" value="No" style="text;html=1;align=center;verticalAlign=middle;resizable=0;points=[];autosize=1;strokeColor=none;fillColor=none;" parent="pzGv0phb2LqkbiFoEdxt-108" vertex="1">
          <mxGeometry x="654.8" y="675" width="40" height="30" as="geometry" />
        </mxCell>
        <mxCell id="pzGv0phb2LqkbiFoEdxt-102" style="edgeStyle=orthogonalEdgeStyle;rounded=0;orthogonalLoop=1;jettySize=auto;html=1;entryX=1;entryY=0.5;entryDx=0;entryDy=0;" parent="pzGv0phb2LqkbiFoEdxt-108" source="pzGv0phb2LqkbiFoEdxt-80" target="pzGv0phb2LqkbiFoEdxt-93" edge="1">
          <mxGeometry relative="1" as="geometry">
            <Array as="points">
              <mxPoint x="994.8" y="415" />
              <mxPoint x="994.8" y="1045" />
            </Array>
          </mxGeometry>
        </mxCell>
        <mxCell id="pzGv0phb2LqkbiFoEdxt-80" value="&quot;Sunflowers seed is out of stock&quot;" style="shape=parallelogram;perimeter=parallelogramPerimeter;whiteSpace=wrap;html=1;fixedSize=1;fontFamily=Sarabun;fontSource=https%3A%2F%2Ffonts.googleapis.com%2Fcss%3Ffamily%3DSarabun;" parent="pzGv0phb2LqkbiFoEdxt-108" vertex="1">
          <mxGeometry x="743.9300000000001" y="400" width="170" height="30" as="geometry" />
        </mxCell>
        <mxCell id="pzGv0phb2LqkbiFoEdxt-103" style="edgeStyle=orthogonalEdgeStyle;rounded=0;orthogonalLoop=1;jettySize=auto;html=1;entryX=1;entryY=0.5;entryDx=0;entryDy=0;" parent="pzGv0phb2LqkbiFoEdxt-108" source="pzGv0phb2LqkbiFoEdxt-82" target="pzGv0phb2LqkbiFoEdxt-93" edge="1">
          <mxGeometry relative="1" as="geometry">
            <Array as="points">
              <mxPoint x="964.8" y="516" />
              <mxPoint x="964.8" y="1045" />
            </Array>
          </mxGeometry>
        </mxCell>
        <mxCell id="pzGv0phb2LqkbiFoEdxt-82" value="&quot;Bean is out of stock&quot;" style="shape=parallelogram;perimeter=parallelogramPerimeter;whiteSpace=wrap;html=1;fixedSize=1;fontFamily=Sarabun;fontSource=https%3A%2F%2Ffonts.googleapis.com%2Fcss%3Ffamily%3DSarabun;" parent="pzGv0phb2LqkbiFoEdxt-108" vertex="1">
          <mxGeometry x="739.8" y="501" width="170" height="30" as="geometry" />
        </mxCell>
        <mxCell id="pzGv0phb2LqkbiFoEdxt-104" style="edgeStyle=orthogonalEdgeStyle;rounded=0;orthogonalLoop=1;jettySize=auto;html=1;entryX=1;entryY=0.5;entryDx=0;entryDy=0;" parent="pzGv0phb2LqkbiFoEdxt-108" source="pzGv0phb2LqkbiFoEdxt-84" target="pzGv0phb2LqkbiFoEdxt-93" edge="1">
          <mxGeometry relative="1" as="geometry">
            <Array as="points">
              <mxPoint x="934.8" y="650" />
              <mxPoint x="934.8" y="1045" />
            </Array>
          </mxGeometry>
        </mxCell>
        <mxCell id="pzGv0phb2LqkbiFoEdxt-84" value="&quot;Sour pork is out of stock&quot;" style="shape=parallelogram;perimeter=parallelogramPerimeter;whiteSpace=wrap;html=1;fixedSize=1;fontFamily=Sarabun;fontSource=https%3A%2F%2Ffonts.googleapis.com%2Fcss%3Ffamily%3DSarabun;" parent="pzGv0phb2LqkbiFoEdxt-108" vertex="1">
          <mxGeometry x="743.9300000000001" y="635" width="170" height="30" as="geometry" />
        </mxCell>
        <mxCell id="pzGv0phb2LqkbiFoEdxt-86" value="Yes" style="text;html=1;align=center;verticalAlign=middle;resizable=0;points=[];autosize=1;strokeColor=none;fillColor=none;" parent="pzGv0phb2LqkbiFoEdxt-108" vertex="1">
          <mxGeometry x="764.8" y="350" width="40" height="30" as="geometry" />
        </mxCell>
        <mxCell id="pzGv0phb2LqkbiFoEdxt-87" value="Yes" style="text;html=1;align=center;verticalAlign=middle;resizable=0;points=[];autosize=1;strokeColor=none;fillColor=none;" parent="pzGv0phb2LqkbiFoEdxt-108" vertex="1">
          <mxGeometry x="697.55" y="486" width="40" height="30" as="geometry" />
        </mxCell>
        <mxCell id="pzGv0phb2LqkbiFoEdxt-89" value="Yes" style="text;html=1;align=center;verticalAlign=middle;resizable=0;points=[];autosize=1;strokeColor=none;fillColor=none;" parent="pzGv0phb2LqkbiFoEdxt-108" vertex="1">
          <mxGeometry x="716.3" y="620" width="40" height="30" as="geometry" />
        </mxCell>
        <mxCell id="pzGv0phb2LqkbiFoEdxt-107" style="edgeStyle=orthogonalEdgeStyle;rounded=0;orthogonalLoop=1;jettySize=auto;html=1;entryX=0.5;entryY=0;entryDx=0;entryDy=0;" parent="pzGv0phb2LqkbiFoEdxt-108" source="pzGv0phb2LqkbiFoEdxt-90" target="pzGv0phb2LqkbiFoEdxt-105" edge="1">
          <mxGeometry relative="1" as="geometry" />
        </mxCell>
        <mxCell id="pzGv0phb2LqkbiFoEdxt-90" value="Enter menu mode" style="rounded=0;whiteSpace=wrap;html=1;" parent="pzGv0phb2LqkbiFoEdxt-108" vertex="1">
          <mxGeometry x="458.79999999999995" y="1020" width="120" height="50" as="geometry" />
        </mxCell>
        <mxCell id="pzGv0phb2LqkbiFoEdxt-100" style="edgeStyle=orthogonalEdgeStyle;rounded=0;orthogonalLoop=1;jettySize=auto;html=1;entryX=0;entryY=0.5;entryDx=0;entryDy=0;" parent="pzGv0phb2LqkbiFoEdxt-108" source="pzGv0phb2LqkbiFoEdxt-92" target="pzGv0phb2LqkbiFoEdxt-90" edge="1">
          <mxGeometry relative="1" as="geometry" />
        </mxCell>
        <mxCell id="pzGv0phb2LqkbiFoEdxt-92" value="" style="ellipse;whiteSpace=wrap;html=1;aspect=fixed;" parent="pzGv0phb2LqkbiFoEdxt-108" vertex="1">
          <mxGeometry x="304.79999999999995" y="1030" width="30" height="30" as="geometry" />
        </mxCell>
        <mxCell id="pzGv0phb2LqkbiFoEdxt-101" style="edgeStyle=orthogonalEdgeStyle;rounded=0;orthogonalLoop=1;jettySize=auto;html=1;entryX=1;entryY=0.5;entryDx=0;entryDy=0;" parent="pzGv0phb2LqkbiFoEdxt-108" source="pzGv0phb2LqkbiFoEdxt-93" target="pzGv0phb2LqkbiFoEdxt-90" edge="1">
          <mxGeometry relative="1" as="geometry" />
        </mxCell>
        <mxCell id="pzGv0phb2LqkbiFoEdxt-93" value="" style="ellipse;whiteSpace=wrap;html=1;aspect=fixed;" parent="pzGv0phb2LqkbiFoEdxt-108" vertex="1">
          <mxGeometry x="642.55" y="1030" width="30" height="30" as="geometry" />
        </mxCell>
        <mxCell id="pzGv0phb2LqkbiFoEdxt-105" value="&lt;font face=&quot;Sarabun&quot;&gt;End&lt;/font&gt;" style="ellipse;whiteSpace=wrap;html=1;" parent="pzGv0phb2LqkbiFoEdxt-108" vertex="1">
          <mxGeometry x="454.29999999999995" y="1130" width="130" height="30" as="geometry" />
        </mxCell>
        <mxCell id="pzGv0phb2LqkbiFoEdxt-110" value="Product checking function" style="rounded=0;whiteSpace=wrap;html=1;fontSize=50;fillColor=#e3c800;fontColor=#000000;strokeColor=#B09500;" parent="pzGv0phb2LqkbiFoEdxt-111" vertex="1">
          <mxGeometry width="1090" height="100" as="geometry" />
        </mxCell>
        <mxCell id="pzGv0phb2LqkbiFoEdxt-113" value="" style="group;movable=0;resizable=0;rotatable=0;deletable=0;editable=0;locked=1;connectable=0;container=0;fillColor=default;strokeColor=default;shadow=1;" parent="WIyWlLk6GJQsqaUBKTNV-1" vertex="1" connectable="0">
          <mxGeometry x="-3560" y="660" width="3409" height="2590" as="geometry" />
        </mxCell>
        <mxCell id="pzGv0phb2LqkbiFoEdxt-196" value="Change Calculation function" style="rounded=0;whiteSpace=wrap;html=1;fontSize=50;fillColor=default;strokeColor=#36393d;movable=1;resizable=1;rotatable=1;deletable=1;editable=1;locked=0;connectable=1;" parent="WIyWlLk6GJQsqaUBKTNV-1" vertex="1">
          <mxGeometry x="-3240" y="510" width="3089" height="100" as="geometry" />
        </mxCell>
        <mxCell id="jf4m06gn2RRlzMnnzSck-281" style="edgeStyle=orthogonalEdgeStyle;rounded=0;orthogonalLoop=1;jettySize=auto;html=1;entryX=0.5;entryY=0;entryDx=0;entryDy=0;" edge="1" parent="WIyWlLk6GJQsqaUBKTNV-1" source="pzGv0phb2LqkbiFoEdxt-116" target="jf4m06gn2RRlzMnnzSck-280">
          <mxGeometry relative="1" as="geometry" />
        </mxCell>
        <mxCell id="pzGv0phb2LqkbiFoEdxt-116" value="&lt;font data-font-src=&quot;https://fonts.googleapis.com/css?family=Sarabun&quot; face=&quot;Sarabun&quot;&gt;Start&lt;/font&gt;" style="ellipse;whiteSpace=wrap;html=1;" parent="WIyWlLk6GJQsqaUBKTNV-1" vertex="1">
          <mxGeometry x="-999.1305504587157" y="679.9997520661159" width="217.06422018348624" height="53.057851239669425" as="geometry" />
        </mxCell>
        <mxCell id="pzGv0phb2LqkbiFoEdxt-198" value="Main function" style="rounded=0;whiteSpace=wrap;html=1;fontSize=50;fillColor=#e1d5e7;strokeColor=#9673a6;movable=1;resizable=1;rotatable=1;deletable=1;editable=1;locked=0;connectable=1;" parent="WIyWlLk6GJQsqaUBKTNV-1" vertex="1">
          <mxGeometry x="325" y="-2320" width="1008" height="100" as="geometry" />
        </mxCell>
        <mxCell id="pzGv0phb2LqkbiFoEdxt-199" value="" style="rounded=0;whiteSpace=wrap;html=1;fontSize=50;fillColor=#e1d5e7;strokeColor=#9673a6;movable=0;resizable=0;rotatable=0;deletable=0;editable=0;locked=1;connectable=0;" parent="WIyWlLk6GJQsqaUBKTNV-1" vertex="1">
          <mxGeometry x="325" y="-2206.94" width="1008" height="1036.94" as="geometry" />
        </mxCell>
        <mxCell id="pzGv0phb2LqkbiFoEdxt-401" style="edgeStyle=orthogonalEdgeStyle;rounded=0;orthogonalLoop=1;jettySize=auto;html=1;entryX=0.5;entryY=0;entryDx=0;entryDy=0;" parent="WIyWlLk6GJQsqaUBKTNV-1" source="pzGv0phb2LqkbiFoEdxt-200" target="pzGv0phb2LqkbiFoEdxt-286" edge="1">
          <mxGeometry relative="1" as="geometry" />
        </mxCell>
        <mxCell id="pzGv0phb2LqkbiFoEdxt-200" value="&lt;font data-font-src=&quot;https://fonts.googleapis.com/css?family=Sarabun&quot; face=&quot;Sarabun&quot;&gt;Start&lt;/font&gt;" style="ellipse;whiteSpace=wrap;html=1;" parent="WIyWlLk6GJQsqaUBKTNV-1" vertex="1">
          <mxGeometry x="720.47" y="-2160" width="217.06422018348624" height="53.057851239669425" as="geometry" />
        </mxCell>
        <mxCell id="pzGv0phb2LqkbiFoEdxt-403" style="edgeStyle=orthogonalEdgeStyle;rounded=0;orthogonalLoop=1;jettySize=auto;html=1;entryX=0.5;entryY=0;entryDx=0;entryDy=0;" parent="WIyWlLk6GJQsqaUBKTNV-1" source="pzGv0phb2LqkbiFoEdxt-286" target="pzGv0phb2LqkbiFoEdxt-406" edge="1">
          <mxGeometry relative="1" as="geometry">
            <mxPoint x="829.0050000000001" y="-2000" as="targetPoint" />
          </mxGeometry>
        </mxCell>
        <mxCell id="pzGv0phb2LqkbiFoEdxt-286" value="Total_product = 0&lt;div&gt;money = 0&lt;/div&gt;&lt;div&gt;change = 0&lt;/div&gt;" style="rounded=0;whiteSpace=wrap;html=1;fontFamily=Sarabun;fontSource=https%3A%2F%2Ffonts.googleapis.com%2Fcss%3Ffamily%3DSarabun;fontSize=12;" parent="WIyWlLk6GJQsqaUBKTNV-1" vertex="1">
          <mxGeometry x="747.13" y="-2080" width="163.75" height="60" as="geometry" />
        </mxCell>
        <mxCell id="pzGv0phb2LqkbiFoEdxt-600" style="edgeStyle=orthogonalEdgeStyle;rounded=0;orthogonalLoop=1;jettySize=auto;html=1;strokeWidth=5;exitX=1;exitY=0.5;exitDx=0;exitDy=0;entryX=0;entryY=0.5;entryDx=0;entryDy=0;" parent="WIyWlLk6GJQsqaUBKTNV-1" source="pzGv0phb2LqkbiFoEdxt-113" target="pzGv0phb2LqkbiFoEdxt-419" edge="1">
          <mxGeometry relative="1" as="geometry">
            <mxPoint x="-90" y="605" as="sourcePoint" />
            <mxPoint x="757.0100000000002" y="-1460" as="targetPoint" />
            <Array as="points">
              <mxPoint x="230" y="1730" />
              <mxPoint x="230" y="-1573" />
            </Array>
          </mxGeometry>
        </mxCell>
        <mxCell id="pzGv0phb2LqkbiFoEdxt-399" value="" style="group" parent="WIyWlLk6GJQsqaUBKTNV-1" vertex="1" connectable="0">
          <mxGeometry x="1540" y="-3330" width="660" height="830" as="geometry" />
        </mxCell>
        <mxCell id="pzGv0phb2LqkbiFoEdxt-287" value="Menu function" style="rounded=0;whiteSpace=wrap;html=1;fontSize=50;fillColor=light-dark(#F8CECC,#0B5119);strokeColor=#9673a6;movable=1;resizable=1;rotatable=1;deletable=1;editable=1;locked=0;connectable=1;" parent="pzGv0phb2LqkbiFoEdxt-399" vertex="1">
          <mxGeometry width="660" height="100" as="geometry" />
        </mxCell>
        <mxCell id="pzGv0phb2LqkbiFoEdxt-288" value="" style="rounded=0;whiteSpace=wrap;html=1;fontSize=50;fillColor=light-dark(#F8CECC,#0B5119);strokeColor=#b85450;movable=1;resizable=1;rotatable=1;deletable=1;editable=1;locked=0;connectable=1;" parent="pzGv0phb2LqkbiFoEdxt-399" vertex="1">
          <mxGeometry y="113.05999999999995" width="660" height="716.94" as="geometry" />
        </mxCell>
        <mxCell id="pzGv0phb2LqkbiFoEdxt-378" style="edgeStyle=orthogonalEdgeStyle;rounded=0;orthogonalLoop=1;jettySize=auto;html=1;entryX=0.5;entryY=0;entryDx=0;entryDy=0;" parent="pzGv0phb2LqkbiFoEdxt-399" source="pzGv0phb2LqkbiFoEdxt-289" target="pzGv0phb2LqkbiFoEdxt-376" edge="1">
          <mxGeometry relative="1" as="geometry" />
        </mxCell>
        <mxCell id="pzGv0phb2LqkbiFoEdxt-289" value="&lt;font data-font-src=&quot;https://fonts.googleapis.com/css?family=Sarabun&quot; face=&quot;Sarabun&quot;&gt;Start&lt;/font&gt;" style="ellipse;whiteSpace=wrap;html=1;" parent="pzGv0phb2LqkbiFoEdxt-399" vertex="1">
          <mxGeometry x="221.47000000000025" y="150" width="217.06422018348624" height="53.057851239669425" as="geometry" />
        </mxCell>
        <mxCell id="pzGv0phb2LqkbiFoEdxt-380" style="edgeStyle=orthogonalEdgeStyle;rounded=0;orthogonalLoop=1;jettySize=auto;html=1;" parent="pzGv0phb2LqkbiFoEdxt-399" source="pzGv0phb2LqkbiFoEdxt-376" edge="1">
          <mxGeometry relative="1" as="geometry">
            <mxPoint x="330" y="320" as="targetPoint" />
          </mxGeometry>
        </mxCell>
        <mxCell id="pzGv0phb2LqkbiFoEdxt-376" value="&quot;Menu to choose!&quot;" style="shape=parallelogram;perimeter=parallelogramPerimeter;whiteSpace=wrap;html=1;fixedSize=1;" parent="pzGv0phb2LqkbiFoEdxt-399" vertex="1">
          <mxGeometry x="255" y="270" width="150" height="30" as="geometry" />
        </mxCell>
        <mxCell id="pzGv0phb2LqkbiFoEdxt-388" style="edgeStyle=orthogonalEdgeStyle;rounded=0;orthogonalLoop=1;jettySize=auto;html=1;entryX=0.5;entryY=0;entryDx=0;entryDy=0;" parent="pzGv0phb2LqkbiFoEdxt-399" source="pzGv0phb2LqkbiFoEdxt-379" target="pzGv0phb2LqkbiFoEdxt-387" edge="1">
          <mxGeometry relative="1" as="geometry">
            <Array as="points">
              <mxPoint x="215" y="350" />
            </Array>
          </mxGeometry>
        </mxCell>
        <mxCell id="pzGv0phb2LqkbiFoEdxt-391" style="edgeStyle=orthogonalEdgeStyle;rounded=0;orthogonalLoop=1;jettySize=auto;html=1;entryX=0.5;entryY=0;entryDx=0;entryDy=0;" parent="pzGv0phb2LqkbiFoEdxt-399" source="pzGv0phb2LqkbiFoEdxt-379" target="pzGv0phb2LqkbiFoEdxt-390" edge="1">
          <mxGeometry relative="1" as="geometry" />
        </mxCell>
        <mxCell id="pzGv0phb2LqkbiFoEdxt-379" value="Drink?" style="rhombus;whiteSpace=wrap;html=1;" parent="pzGv0phb2LqkbiFoEdxt-399" vertex="1">
          <mxGeometry x="290" y="320" width="80" height="60" as="geometry" />
        </mxCell>
        <mxCell id="pzGv0phb2LqkbiFoEdxt-396" style="edgeStyle=orthogonalEdgeStyle;rounded=0;orthogonalLoop=1;jettySize=auto;html=1;entryX=0;entryY=0.5;entryDx=0;entryDy=0;" parent="pzGv0phb2LqkbiFoEdxt-399" source="pzGv0phb2LqkbiFoEdxt-381" target="pzGv0phb2LqkbiFoEdxt-395" edge="1">
          <mxGeometry relative="1" as="geometry" />
        </mxCell>
        <mxCell id="pzGv0phb2LqkbiFoEdxt-381" value="&quot;Coke 10 Baht /can&lt;div&gt;Fanta 12 Baht / can&lt;/div&gt;&lt;div&gt;Americano 30 Baht&lt;/div&gt;&lt;div&gt;Latte 35 Baht&quot;&lt;/div&gt;" style="shape=parallelogram;perimeter=parallelogramPerimeter;whiteSpace=wrap;html=1;fixedSize=1;" parent="pzGv0phb2LqkbiFoEdxt-399" vertex="1">
          <mxGeometry x="140" y="510" width="150" height="80" as="geometry" />
        </mxCell>
        <mxCell id="pzGv0phb2LqkbiFoEdxt-383" value="No" style="text;html=1;align=center;verticalAlign=middle;resizable=0;points=[];autosize=1;strokeColor=none;fillColor=none;fontFamily=Sarabun;fontSource=https%3A%2F%2Ffonts.googleapis.com%2Fcss%3Ffamily%3DSarabun;" parent="pzGv0phb2LqkbiFoEdxt-399" vertex="1">
          <mxGeometry x="390" y="320" width="40" height="30" as="geometry" />
        </mxCell>
        <mxCell id="pzGv0phb2LqkbiFoEdxt-384" value="Yes" style="text;html=1;align=center;verticalAlign=middle;resizable=0;points=[];autosize=1;strokeColor=none;fillColor=none;fontFamily=Sarabun;fontSource=https%3A%2F%2Ffonts.googleapis.com%2Fcss%3Ffamily%3DSarabun;" parent="pzGv0phb2LqkbiFoEdxt-399" vertex="1">
          <mxGeometry x="228" y="320" width="40" height="30" as="geometry" />
        </mxCell>
        <mxCell id="pzGv0phb2LqkbiFoEdxt-397" style="edgeStyle=orthogonalEdgeStyle;rounded=0;orthogonalLoop=1;jettySize=auto;html=1;entryX=1;entryY=0.5;entryDx=0;entryDy=0;" parent="pzGv0phb2LqkbiFoEdxt-399" source="pzGv0phb2LqkbiFoEdxt-385" target="pzGv0phb2LqkbiFoEdxt-395" edge="1">
          <mxGeometry relative="1" as="geometry" />
        </mxCell>
        <mxCell id="pzGv0phb2LqkbiFoEdxt-385" value="&quot;Sunflower seed 13 Baht&lt;div&gt;&lt;span style=&quot;background-color: transparent; color: light-dark(rgb(0, 0, 0), rgb(255, 255, 255));&quot;&gt;Bean 20 Baht&lt;/span&gt;&lt;/div&gt;&lt;div&gt;&lt;span style=&quot;background-color: transparent; color: light-dark(rgb(0, 0, 0), rgb(255, 255, 255));&quot;&gt;Sour pork 15 Baht&quot;&lt;/span&gt;&lt;/div&gt;" style="shape=parallelogram;perimeter=parallelogramPerimeter;whiteSpace=wrap;html=1;fixedSize=1;" parent="pzGv0phb2LqkbiFoEdxt-399" vertex="1">
          <mxGeometry x="372" y="510" width="180" height="50" as="geometry" />
        </mxCell>
        <mxCell id="pzGv0phb2LqkbiFoEdxt-389" style="edgeStyle=orthogonalEdgeStyle;rounded=0;orthogonalLoop=1;jettySize=auto;html=1;entryX=0.5;entryY=0;entryDx=0;entryDy=0;" parent="pzGv0phb2LqkbiFoEdxt-399" source="pzGv0phb2LqkbiFoEdxt-387" target="pzGv0phb2LqkbiFoEdxt-381" edge="1">
          <mxGeometry relative="1" as="geometry" />
        </mxCell>
        <mxCell id="pzGv0phb2LqkbiFoEdxt-387" value="&quot;Drinks!&quot;" style="shape=parallelogram;perimeter=parallelogramPerimeter;whiteSpace=wrap;html=1;fixedSize=1;" parent="pzGv0phb2LqkbiFoEdxt-399" vertex="1">
          <mxGeometry x="140" y="400" width="150" height="40" as="geometry" />
        </mxCell>
        <mxCell id="pzGv0phb2LqkbiFoEdxt-390" value="&quot;Snacks!&quot;" style="shape=parallelogram;perimeter=parallelogramPerimeter;whiteSpace=wrap;html=1;fixedSize=1;" parent="pzGv0phb2LqkbiFoEdxt-399" vertex="1">
          <mxGeometry x="390" y="390" width="150" height="40" as="geometry" />
        </mxCell>
        <mxCell id="pzGv0phb2LqkbiFoEdxt-392" style="edgeStyle=orthogonalEdgeStyle;rounded=0;orthogonalLoop=1;jettySize=auto;html=1;entryX=0.52;entryY=0.024;entryDx=0;entryDy=0;entryPerimeter=0;" parent="pzGv0phb2LqkbiFoEdxt-399" source="pzGv0phb2LqkbiFoEdxt-390" target="pzGv0phb2LqkbiFoEdxt-385" edge="1">
          <mxGeometry relative="1" as="geometry" />
        </mxCell>
        <mxCell id="pzGv0phb2LqkbiFoEdxt-393" value="&lt;font data-font-src=&quot;https://fonts.googleapis.com/css?family=Sarabun&quot; face=&quot;Sarabun&quot;&gt;End&lt;/font&gt;" style="ellipse;whiteSpace=wrap;html=1;" parent="pzGv0phb2LqkbiFoEdxt-399" vertex="1">
          <mxGeometry x="265" y="780" width="130" height="30" as="geometry" />
        </mxCell>
        <mxCell id="pzGv0phb2LqkbiFoEdxt-398" style="edgeStyle=orthogonalEdgeStyle;rounded=0;orthogonalLoop=1;jettySize=auto;html=1;" parent="pzGv0phb2LqkbiFoEdxt-399" source="pzGv0phb2LqkbiFoEdxt-395" target="pzGv0phb2LqkbiFoEdxt-393" edge="1">
          <mxGeometry relative="1" as="geometry">
            <mxPoint x="330.0050000000001" y="780" as="targetPoint" />
          </mxGeometry>
        </mxCell>
        <mxCell id="pzGv0phb2LqkbiFoEdxt-395" value="Customer choose item" style="rounded=0;whiteSpace=wrap;html=1;fontFamily=Sarabun;fontSource=https%3A%2F%2Ffonts.googleapis.com%2Fcss%3Ffamily%3DSarabun;fontSize=10;" parent="pzGv0phb2LqkbiFoEdxt-399" vertex="1">
          <mxGeometry x="248.1300000000001" y="630" width="163.75" height="40" as="geometry" />
        </mxCell>
        <mxCell id="pzGv0phb2LqkbiFoEdxt-400" value="&lt;div style=&quot;forced-color-adjust: none; box-shadow: none !important;&quot;&gt;&lt;b style=&quot;forced-color-adjust: none; box-shadow: none !important;&quot;&gt;&lt;font style=&quot;forced-color-adjust: none; box-shadow: none !important;&quot;&gt;storage system for products(will not show for user, only the amount and run out of stock will be show)&lt;/font&gt;&lt;/b&gt;:&lt;/div&gt;&lt;div style=&quot;forced-color-adjust: none; box-shadow: none !important;&quot;&gt;- happen before the user will select the product&lt;/div&gt;&lt;div style=&quot;forced-color-adjust: none; box-shadow: none !important;&quot;&gt;1. check products in the machine&lt;/div&gt;&lt;div style=&quot;forced-color-adjust: none; box-shadow: none !important;&quot;&gt;2. if the product is out of stock:&lt;/div&gt;&lt;div style=&quot;forced-color-adjust: none; box-shadow: none !important;&quot;&gt;&lt;span style=&quot;forced-color-adjust: none; box-shadow: none !important; white-space: pre;&quot;&gt;&lt;span style=&quot;white-space: pre;&quot;&gt;&amp;nbsp;&amp;nbsp;&amp;nbsp;&amp;nbsp;&lt;/span&gt;&lt;/span&gt;- display out of stock message&lt;br style=&quot;forced-color-adjust: none; box-shadow: none !important;&quot;&gt;&lt;/div&gt;&lt;div style=&quot;forced-color-adjust: none; box-shadow: none !important;&quot;&gt;&lt;span style=&quot;forced-color-adjust: none; box-shadow: none !important; white-space: pre;&quot;&gt;&lt;span style=&quot;white-space: pre;&quot;&gt;&amp;nbsp;&amp;nbsp;&amp;nbsp;&amp;nbsp;&lt;/span&gt;&lt;/span&gt;- visually -&amp;gt; make the image of the product faded or a text said out of stock&lt;br style=&quot;forced-color-adjust: none; box-shadow: none !important;&quot;&gt;&lt;/div&gt;&lt;div style=&quot;forced-color-adjust: none; box-shadow: none !important;&quot;&gt;3. if the product in the stock:&lt;/div&gt;&lt;div style=&quot;forced-color-adjust: none; box-shadow: none !important;&quot;&gt;&lt;span style=&quot;forced-color-adjust: none; box-shadow: none !important; white-space: pre;&quot;&gt;&lt;span style=&quot;white-space: pre;&quot;&gt;&amp;nbsp;&amp;nbsp;&amp;nbsp;&amp;nbsp;&lt;/span&gt;&lt;/span&gt;- count the products&lt;br style=&quot;forced-color-adjust: none; box-shadow: none !important;&quot;&gt;&lt;/div&gt;&lt;div style=&quot;forced-color-adjust: none; box-shadow: none !important;&quot;&gt;&lt;span style=&quot;forced-color-adjust: none; box-shadow: none !important; white-space: pre;&quot;&gt;&lt;span style=&quot;white-space: pre;&quot;&gt;&amp;nbsp;&amp;nbsp;&amp;nbsp;&amp;nbsp;&lt;/span&gt;&lt;/span&gt;- display how many products in the menu selections&lt;br style=&quot;forced-color-adjust: none; box-shadow: none !important;&quot;&gt;&lt;/div&gt;&lt;div style=&quot;forced-color-adjust: none; box-shadow: none !important;&quot;&gt;4. enter the menu selection for user&lt;/div&gt;&lt;div style=&quot;forced-color-adjust: none; box-shadow: none !important;&quot;&gt;&lt;br style=&quot;forced-color-adjust: none; color: rgb(255, 255, 255); font-family: Helvetica; font-style: normal; font-variant-ligatures: normal; font-variant-caps: normal; font-weight: 400; letter-spacing: normal; orphans: 2; text-align: left; text-indent: 0px; text-transform: none; widows: 2; word-spacing: 0px; -webkit-text-stroke-width: 0px; white-space: normal; background-color: rgb(27, 29, 30); text-decoration-thickness: initial; text-decoration-style: initial; text-decoration-color: initial; box-shadow: none !important;&quot;&gt;&#xa;&#xa;&lt;/div&gt;" style="text;whiteSpace=wrap;html=1;strokeColor=default;fontSize=14;" parent="WIyWlLk6GJQsqaUBKTNV-1" vertex="1">
          <mxGeometry x="-1700" y="-2860" width="560" height="200" as="geometry" />
        </mxCell>
        <mxCell id="pzGv0phb2LqkbiFoEdxt-513" value="" style="group;fillColor=default;strokeColor=default;container=0;movable=0;resizable=0;rotatable=0;deletable=0;editable=0;locked=1;connectable=0;" parent="WIyWlLk6GJQsqaUBKTNV-1" vertex="1" connectable="0">
          <mxGeometry x="-1840" y="-1560" width="1590" height="1860" as="geometry" />
        </mxCell>
        <mxCell id="pzGv0phb2LqkbiFoEdxt-414" style="edgeStyle=orthogonalEdgeStyle;rounded=0;orthogonalLoop=1;jettySize=auto;html=1;entryX=0.5;entryY=0;entryDx=0;entryDy=0;" parent="WIyWlLk6GJQsqaUBKTNV-1" source="pzGv0phb2LqkbiFoEdxt-406" target="pzGv0phb2LqkbiFoEdxt-410" edge="1">
          <mxGeometry relative="1" as="geometry" />
        </mxCell>
        <mxCell id="pzGv0phb2LqkbiFoEdxt-406" value="Product checking" style="shape=process;whiteSpace=wrap;html=1;backgroundOutline=1;" parent="WIyWlLk6GJQsqaUBKTNV-1" vertex="1">
          <mxGeometry x="747.6899999999999" y="-1986.03" width="162.87" height="60" as="geometry" />
        </mxCell>
        <mxCell id="pzGv0phb2LqkbiFoEdxt-409" style="edgeStyle=orthogonalEdgeStyle;rounded=0;orthogonalLoop=1;jettySize=auto;html=1;entryX=0.014;entryY=0.525;entryDx=0;entryDy=0;strokeWidth=5;entryPerimeter=0;" parent="WIyWlLk6GJQsqaUBKTNV-1" source="pzGv0phb2LqkbiFoEdxt-24" target="pzGv0phb2LqkbiFoEdxt-406" edge="1">
          <mxGeometry relative="1" as="geometry">
            <Array as="points">
              <mxPoint x="240" y="-2575" />
              <mxPoint x="240" y="-1955" />
              <mxPoint x="720" y="-1955" />
            </Array>
          </mxGeometry>
        </mxCell>
        <mxCell id="pzGv0phb2LqkbiFoEdxt-417" style="edgeStyle=orthogonalEdgeStyle;rounded=0;orthogonalLoop=1;jettySize=auto;html=1;entryX=0.5;entryY=0;entryDx=0;entryDy=0;" parent="WIyWlLk6GJQsqaUBKTNV-1" source="pzGv0phb2LqkbiFoEdxt-410" target="pzGv0phb2LqkbiFoEdxt-416" edge="1">
          <mxGeometry relative="1" as="geometry" />
        </mxCell>
        <mxCell id="pzGv0phb2LqkbiFoEdxt-410" value="Menu" style="shape=process;whiteSpace=wrap;html=1;backgroundOutline=1;" parent="WIyWlLk6GJQsqaUBKTNV-1" vertex="1">
          <mxGeometry x="747.5699999999999" y="-1893.03" width="162.87" height="60" as="geometry" />
        </mxCell>
        <mxCell id="pzGv0phb2LqkbiFoEdxt-415" style="edgeStyle=orthogonalEdgeStyle;rounded=0;orthogonalLoop=1;jettySize=auto;html=1;entryX=1;entryY=0.5;entryDx=0;entryDy=0;strokeWidth=5;" parent="WIyWlLk6GJQsqaUBKTNV-1" source="pzGv0phb2LqkbiFoEdxt-288" target="pzGv0phb2LqkbiFoEdxt-410" edge="1">
          <mxGeometry relative="1" as="geometry">
            <Array as="points">
              <mxPoint x="1400" y="-2858" />
              <mxPoint x="1400" y="-1863" />
            </Array>
          </mxGeometry>
        </mxCell>
        <mxCell id="pzGv0phb2LqkbiFoEdxt-421" style="edgeStyle=orthogonalEdgeStyle;rounded=0;orthogonalLoop=1;jettySize=auto;html=1;entryX=0.5;entryY=0;entryDx=0;entryDy=0;" parent="WIyWlLk6GJQsqaUBKTNV-1" source="pzGv0phb2LqkbiFoEdxt-416" target="pzGv0phb2LqkbiFoEdxt-418" edge="1">
          <mxGeometry relative="1" as="geometry" />
        </mxCell>
        <mxCell id="pzGv0phb2LqkbiFoEdxt-416" value="Choose Product" style="shape=process;whiteSpace=wrap;html=1;backgroundOutline=1;" parent="WIyWlLk6GJQsqaUBKTNV-1" vertex="1">
          <mxGeometry x="747.5699999999999" y="-1803.03" width="162.87" height="60" as="geometry" />
        </mxCell>
        <mxCell id="pzGv0phb2LqkbiFoEdxt-424" style="edgeStyle=orthogonalEdgeStyle;rounded=0;orthogonalLoop=1;jettySize=auto;html=1;entryX=0.5;entryY=0;entryDx=0;entryDy=0;" parent="WIyWlLk6GJQsqaUBKTNV-1" source="pzGv0phb2LqkbiFoEdxt-418" target="pzGv0phb2LqkbiFoEdxt-419" edge="1">
          <mxGeometry relative="1" as="geometry" />
        </mxCell>
        <mxCell id="pzGv0phb2LqkbiFoEdxt-418" value="Receive Money" style="shape=process;whiteSpace=wrap;html=1;backgroundOutline=1;" parent="WIyWlLk6GJQsqaUBKTNV-1" vertex="1">
          <mxGeometry x="747.5699999999999" y="-1703.03" width="162.87" height="60" as="geometry" />
        </mxCell>
        <mxCell id="pzGv0phb2LqkbiFoEdxt-423" style="edgeStyle=orthogonalEdgeStyle;rounded=0;orthogonalLoop=1;jettySize=auto;html=1;entryX=0.5;entryY=0;entryDx=0;entryDy=0;" parent="WIyWlLk6GJQsqaUBKTNV-1" source="pzGv0phb2LqkbiFoEdxt-419" target="pzGv0phb2LqkbiFoEdxt-420" edge="1">
          <mxGeometry relative="1" as="geometry" />
        </mxCell>
        <mxCell id="pzGv0phb2LqkbiFoEdxt-419" value="Change calculation" style="shape=process;whiteSpace=wrap;html=1;backgroundOutline=1;" parent="WIyWlLk6GJQsqaUBKTNV-1" vertex="1">
          <mxGeometry x="747.5699999999999" y="-1603.03" width="162.87" height="60" as="geometry" />
        </mxCell>
        <mxCell id="pzGv0phb2LqkbiFoEdxt-420" value="&lt;font data-font-src=&quot;https://fonts.googleapis.com/css?family=Sarabun&quot; face=&quot;Sarabun&quot;&gt;Start&lt;/font&gt;" style="ellipse;whiteSpace=wrap;html=1;" parent="WIyWlLk6GJQsqaUBKTNV-1" vertex="1">
          <mxGeometry x="720.4699999999999" y="-1483.03" width="217.06422018348624" height="53.057851239669425" as="geometry" />
        </mxCell>
        <mxCell id="pzGv0phb2LqkbiFoEdxt-509" value="Choose Product Function" style="rounded=0;whiteSpace=wrap;html=1;fontSize=50;" parent="WIyWlLk6GJQsqaUBKTNV-1" vertex="1">
          <mxGeometry x="1890" y="-2270" width="2659" height="100" as="geometry" />
        </mxCell>
        <mxCell id="pzGv0phb2LqkbiFoEdxt-511" style="edgeStyle=orthogonalEdgeStyle;rounded=0;orthogonalLoop=1;jettySize=auto;html=1;entryX=1;entryY=0.5;entryDx=0;entryDy=0;strokeWidth=5;" parent="WIyWlLk6GJQsqaUBKTNV-1" source="pzGv0phb2LqkbiFoEdxt-510" target="pzGv0phb2LqkbiFoEdxt-416" edge="1">
          <mxGeometry relative="1" as="geometry" />
        </mxCell>
        <mxCell id="pzGv0phb2LqkbiFoEdxt-510" value="" style="rounded=0;whiteSpace=wrap;html=1;fontSize=50;movable=1;resizable=1;rotatable=1;deletable=1;editable=1;locked=0;connectable=1;" parent="WIyWlLk6GJQsqaUBKTNV-1" vertex="1">
          <mxGeometry x="1890" y="-2150" width="2659" height="1620" as="geometry" />
        </mxCell>
        <mxCell id="pzGv0phb2LqkbiFoEdxt-596" value="Accept Money function" style="rounded=0;whiteSpace=wrap;html=1;fontSize=50;" parent="WIyWlLk6GJQsqaUBKTNV-1" vertex="1">
          <mxGeometry x="-1840" y="-1700" width="1590" height="100" as="geometry" />
        </mxCell>
        <mxCell id="pzGv0phb2LqkbiFoEdxt-597" value="" style="group" parent="WIyWlLk6GJQsqaUBKTNV-1" vertex="1" connectable="0">
          <mxGeometry x="910" y="40" width="1430" height="965.25" as="geometry" />
        </mxCell>
        <mxCell id="M7CGMbNuYNeq0SnUNNgH-6" value="ทบทวนสัญลักษณ์" style="swimlane;fontFamily=Sarabun;fontSource=https%3A%2F%2Ffonts.googleapis.com%2Fcss%3Ffamily%3DSarabun;" parent="pzGv0phb2LqkbiFoEdxt-597" vertex="1">
          <mxGeometry width="680" height="290" as="geometry" />
        </mxCell>
        <mxCell id="M7CGMbNuYNeq0SnUNNgH-2" value="&lt;font data-font-src=&quot;https://fonts.googleapis.com/css?family=Sarabun&quot; face=&quot;Sarabun&quot;&gt;เริ่มต้น&lt;/font&gt;" style="ellipse;whiteSpace=wrap;html=1;" parent="M7CGMbNuYNeq0SnUNNgH-6" vertex="1">
          <mxGeometry x="20" y="40" width="130" height="30" as="geometry" />
        </mxCell>
        <mxCell id="M7CGMbNuYNeq0SnUNNgH-5" value="" style="endArrow=classic;html=1;rounded=0;" parent="M7CGMbNuYNeq0SnUNNgH-6" edge="1">
          <mxGeometry width="50" height="50" relative="1" as="geometry">
            <mxPoint x="84.5" y="70" as="sourcePoint" />
            <mxPoint x="84.5" y="120" as="targetPoint" />
          </mxGeometry>
        </mxCell>
        <mxCell id="M7CGMbNuYNeq0SnUNNgH-3" value="&lt;font face=&quot;Sarabun&quot;&gt;สิ้นสุด&lt;/font&gt;" style="ellipse;whiteSpace=wrap;html=1;" parent="M7CGMbNuYNeq0SnUNNgH-6" vertex="1">
          <mxGeometry x="150" y="90" width="130" height="30" as="geometry" />
        </mxCell>
        <mxCell id="M7CGMbNuYNeq0SnUNNgH-4" value="" style="endArrow=classic;html=1;rounded=0;" parent="M7CGMbNuYNeq0SnUNNgH-6" edge="1">
          <mxGeometry width="50" height="50" relative="1" as="geometry">
            <mxPoint x="214.5" y="40" as="sourcePoint" />
            <mxPoint x="214.5" y="90" as="targetPoint" />
  
